<mxfile host="app.diagrams.net" agent="Mozilla/5.0 (Windows NT 10.0; Win64; x64) AppleWebKit/537.36 (KHTML, like Gecko) Chrome/129.0.0.0 Safari/537.36" version="24.7.17">
  <diagram id="9sQmnJu0lc5YC46oBtRC" name="bsa21_2">
    <mxGraphModel dx="1300" dy="711" grid="1" gridSize="10" guides="1" tooltips="1" connect="1" arrows="1" fold="1" page="1" pageScale="1" pageWidth="1169" pageHeight="827" math="0" shadow="0">
      <root>
        <mxCell id="0" />
        <mxCell id="1" parent="0" />
        <mxCell id="snO9IdEiVwamC3HxAGcw-59" value="&lt;span style=&quot;font-size: 10px;&quot;&gt;избранное&amp;nbsp;&lt;/span&gt;" style="rounded=1;whiteSpace=wrap;html=1;verticalAlign=top;" vertex="1" parent="1">
          <mxGeometry x="450" y="40" width="155" height="310" as="geometry" />
        </mxCell>
        <mxCell id="snO9IdEiVwamC3HxAGcw-60" value="товар 4" style="rounded=1;whiteSpace=wrap;html=1;" vertex="1" parent="1">
          <mxGeometry x="539.5" y="150" width="56" height="70" as="geometry" />
        </mxCell>
        <mxCell id="snO9IdEiVwamC3HxAGcw-108" value="" style="ellipse;whiteSpace=wrap;html=1;aspect=fixed;strokeWidth=1;strokeColor=#00FA08;" vertex="1" parent="1">
          <mxGeometry x="575" y="155" width="20" height="20" as="geometry" />
        </mxCell>
        <mxCell id="snO9IdEiVwamC3HxAGcw-37" value="&lt;font style=&quot;font-size: 10px;&quot;&gt;каталог&lt;/font&gt;" style="rounded=1;whiteSpace=wrap;html=1;verticalAlign=top;" vertex="1" parent="1">
          <mxGeometry x="240" y="40" width="155" height="310" as="geometry" />
        </mxCell>
        <mxCell id="snO9IdEiVwamC3HxAGcw-58" value="" style="ellipse;whiteSpace=wrap;html=1;aspect=fixed;strokeWidth=1;strokeColor=#00FA08;" vertex="1" parent="1">
          <mxGeometry x="350" y="310" width="35.5" height="35.5" as="geometry" />
        </mxCell>
        <mxCell id="m1XFAZKYXhFZ4w68f1Fo-2" value="&lt;font style=&quot;font-size: 10px;&quot;&gt;каталог&lt;/font&gt;" style="rounded=1;whiteSpace=wrap;html=1;verticalAlign=top;" vertex="1" parent="1">
          <mxGeometry x="40" y="40" width="155" height="310" as="geometry" />
        </mxCell>
        <mxCell id="snO9IdEiVwamC3HxAGcw-29" value="товар 4" style="rounded=1;whiteSpace=wrap;html=1;" vertex="1" parent="1">
          <mxGeometry x="129.5" y="150" width="56" height="70" as="geometry" />
        </mxCell>
        <mxCell id="snO9IdEiVwamC3HxAGcw-53" value="" style="ellipse;whiteSpace=wrap;html=1;aspect=fixed;strokeWidth=1;strokeColor=#00FA08;" vertex="1" parent="1">
          <mxGeometry x="164.5" y="155" width="20" height="20" as="geometry" />
        </mxCell>
        <mxCell id="snO9IdEiVwamC3HxAGcw-18" value="" style="verticalLabelPosition=bottom;verticalAlign=top;html=1;shape=mxgraph.basic.heart" vertex="1" parent="1">
          <mxGeometry x="160" y="320" width="20" height="20" as="geometry" />
        </mxCell>
        <mxCell id="snO9IdEiVwamC3HxAGcw-24" value="товар 5" style="rounded=1;whiteSpace=wrap;html=1;" vertex="1" parent="1">
          <mxGeometry x="50" y="230" width="56" height="70" as="geometry" />
        </mxCell>
        <mxCell id="snO9IdEiVwamC3HxAGcw-25" value="товар 6" style="rounded=1;whiteSpace=wrap;html=1;" vertex="1" parent="1">
          <mxGeometry x="130" y="230" width="56" height="70" as="geometry" />
        </mxCell>
        <mxCell id="snO9IdEiVwamC3HxAGcw-26" value="" style="verticalLabelPosition=bottom;verticalAlign=top;html=1;shape=mxgraph.basic.heart" vertex="1" parent="1">
          <mxGeometry x="170" y="240" width="10" height="10" as="geometry" />
        </mxCell>
        <mxCell id="snO9IdEiVwamC3HxAGcw-27" value="" style="verticalLabelPosition=bottom;verticalAlign=top;html=1;shape=mxgraph.basic.heart" vertex="1" parent="1">
          <mxGeometry x="90" y="240" width="10" height="10" as="geometry" />
        </mxCell>
        <mxCell id="snO9IdEiVwamC3HxAGcw-28" value="товар 3" style="rounded=1;whiteSpace=wrap;html=1;" vertex="1" parent="1">
          <mxGeometry x="49.5" y="150" width="56" height="70" as="geometry" />
        </mxCell>
        <mxCell id="snO9IdEiVwamC3HxAGcw-30" value="" style="verticalLabelPosition=bottom;verticalAlign=top;html=1;shape=mxgraph.basic.heart" vertex="1" parent="1">
          <mxGeometry x="169.5" y="160" width="10" height="10" as="geometry" />
        </mxCell>
        <mxCell id="snO9IdEiVwamC3HxAGcw-31" value="" style="verticalLabelPosition=bottom;verticalAlign=top;html=1;shape=mxgraph.basic.heart" vertex="1" parent="1">
          <mxGeometry x="89.5" y="160" width="10" height="10" as="geometry" />
        </mxCell>
        <mxCell id="snO9IdEiVwamC3HxAGcw-32" value="товар 1" style="rounded=1;whiteSpace=wrap;html=1;" vertex="1" parent="1">
          <mxGeometry x="49.5" y="70" width="56" height="70" as="geometry" />
        </mxCell>
        <mxCell id="snO9IdEiVwamC3HxAGcw-33" value="товар 2" style="rounded=1;whiteSpace=wrap;html=1;" vertex="1" parent="1">
          <mxGeometry x="129.5" y="70" width="56" height="70" as="geometry" />
        </mxCell>
        <mxCell id="snO9IdEiVwamC3HxAGcw-34" value="" style="verticalLabelPosition=bottom;verticalAlign=top;html=1;shape=mxgraph.basic.heart" vertex="1" parent="1">
          <mxGeometry x="169.5" y="80" width="10" height="10" as="geometry" />
        </mxCell>
        <mxCell id="snO9IdEiVwamC3HxAGcw-35" value="" style="verticalLabelPosition=bottom;verticalAlign=top;html=1;shape=mxgraph.basic.heart" vertex="1" parent="1">
          <mxGeometry x="89.5" y="80" width="10" height="10" as="geometry" />
        </mxCell>
        <mxCell id="snO9IdEiVwamC3HxAGcw-38" value="" style="verticalLabelPosition=bottom;verticalAlign=top;html=1;shape=mxgraph.basic.heart" vertex="1" parent="1">
          <mxGeometry x="360" y="320" width="20" height="20" as="geometry" />
        </mxCell>
        <mxCell id="snO9IdEiVwamC3HxAGcw-39" value="товар 5" style="rounded=1;whiteSpace=wrap;html=1;" vertex="1" parent="1">
          <mxGeometry x="250" y="230" width="56" height="70" as="geometry" />
        </mxCell>
        <mxCell id="snO9IdEiVwamC3HxAGcw-40" value="товар 6" style="rounded=1;whiteSpace=wrap;html=1;" vertex="1" parent="1">
          <mxGeometry x="330" y="230" width="56" height="70" as="geometry" />
        </mxCell>
        <mxCell id="snO9IdEiVwamC3HxAGcw-41" value="" style="verticalLabelPosition=bottom;verticalAlign=top;html=1;shape=mxgraph.basic.heart" vertex="1" parent="1">
          <mxGeometry x="370" y="240" width="10" height="10" as="geometry" />
        </mxCell>
        <mxCell id="snO9IdEiVwamC3HxAGcw-42" value="" style="verticalLabelPosition=bottom;verticalAlign=top;html=1;shape=mxgraph.basic.heart" vertex="1" parent="1">
          <mxGeometry x="290" y="240" width="10" height="10" as="geometry" />
        </mxCell>
        <mxCell id="snO9IdEiVwamC3HxAGcw-43" value="товар 3" style="rounded=1;whiteSpace=wrap;html=1;" vertex="1" parent="1">
          <mxGeometry x="249.5" y="150" width="56" height="70" as="geometry" />
        </mxCell>
        <mxCell id="snO9IdEiVwamC3HxAGcw-44" value="товар 4" style="rounded=1;whiteSpace=wrap;html=1;" vertex="1" parent="1">
          <mxGeometry x="329.5" y="150" width="56" height="70" as="geometry" />
        </mxCell>
        <mxCell id="snO9IdEiVwamC3HxAGcw-45" value="" style="verticalLabelPosition=bottom;verticalAlign=top;html=1;shape=mxgraph.basic.heart;strokeColor=#000000;fillColor=#FF66FF;" vertex="1" parent="1">
          <mxGeometry x="369.5" y="160" width="10" height="10" as="geometry" />
        </mxCell>
        <mxCell id="snO9IdEiVwamC3HxAGcw-46" value="" style="verticalLabelPosition=bottom;verticalAlign=top;html=1;shape=mxgraph.basic.heart" vertex="1" parent="1">
          <mxGeometry x="289.5" y="160" width="10" height="10" as="geometry" />
        </mxCell>
        <mxCell id="snO9IdEiVwamC3HxAGcw-47" value="товар 1" style="rounded=1;whiteSpace=wrap;html=1;" vertex="1" parent="1">
          <mxGeometry x="249.5" y="70" width="56" height="70" as="geometry" />
        </mxCell>
        <mxCell id="snO9IdEiVwamC3HxAGcw-48" value="товар 2" style="rounded=1;whiteSpace=wrap;html=1;" vertex="1" parent="1">
          <mxGeometry x="329.5" y="70" width="56" height="70" as="geometry" />
        </mxCell>
        <mxCell id="snO9IdEiVwamC3HxAGcw-49" value="" style="verticalLabelPosition=bottom;verticalAlign=top;html=1;shape=mxgraph.basic.heart" vertex="1" parent="1">
          <mxGeometry x="369.5" y="80" width="10" height="10" as="geometry" />
        </mxCell>
        <mxCell id="snO9IdEiVwamC3HxAGcw-50" value="" style="verticalLabelPosition=bottom;verticalAlign=top;html=1;shape=mxgraph.basic.heart" vertex="1" parent="1">
          <mxGeometry x="289.5" y="80" width="10" height="10" as="geometry" />
        </mxCell>
        <mxCell id="snO9IdEiVwamC3HxAGcw-57" style="edgeStyle=orthogonalEdgeStyle;rounded=0;orthogonalLoop=1;jettySize=auto;html=1;entryX=-0.004;entryY=0.404;entryDx=0;entryDy=0;entryPerimeter=0;" edge="1" parent="1" source="snO9IdEiVwamC3HxAGcw-53" target="snO9IdEiVwamC3HxAGcw-37">
          <mxGeometry relative="1" as="geometry" />
        </mxCell>
        <mxCell id="snO9IdEiVwamC3HxAGcw-63" value="товар 5" style="rounded=1;whiteSpace=wrap;html=1;" vertex="1" parent="1">
          <mxGeometry x="460" y="230" width="56" height="70" as="geometry" />
        </mxCell>
        <mxCell id="snO9IdEiVwamC3HxAGcw-64" value="товар 6" style="rounded=1;whiteSpace=wrap;html=1;" vertex="1" parent="1">
          <mxGeometry x="540" y="230" width="56" height="70" as="geometry" />
        </mxCell>
        <mxCell id="snO9IdEiVwamC3HxAGcw-65" value="" style="verticalLabelPosition=bottom;verticalAlign=top;html=1;shape=mxgraph.basic.heart;fillColor=#FF66FF;" vertex="1" parent="1">
          <mxGeometry x="580" y="240" width="10" height="10" as="geometry" />
        </mxCell>
        <mxCell id="snO9IdEiVwamC3HxAGcw-66" value="" style="verticalLabelPosition=bottom;verticalAlign=top;html=1;shape=mxgraph.basic.heart;fillColor=#FF66FF;" vertex="1" parent="1">
          <mxGeometry x="500" y="240" width="10" height="10" as="geometry" />
        </mxCell>
        <mxCell id="snO9IdEiVwamC3HxAGcw-67" value="товар 3" style="rounded=1;whiteSpace=wrap;html=1;" vertex="1" parent="1">
          <mxGeometry x="459.5" y="150" width="56" height="70" as="geometry" />
        </mxCell>
        <mxCell id="snO9IdEiVwamC3HxAGcw-68" value="" style="verticalLabelPosition=bottom;verticalAlign=top;html=1;shape=mxgraph.basic.heart;fillColor=#FF66FF;" vertex="1" parent="1">
          <mxGeometry x="579.5" y="160" width="10" height="10" as="geometry" />
        </mxCell>
        <mxCell id="snO9IdEiVwamC3HxAGcw-69" value="" style="verticalLabelPosition=bottom;verticalAlign=top;html=1;shape=mxgraph.basic.heart;strokeColor=#000000;fillColor=#FF66FF;" vertex="1" parent="1">
          <mxGeometry x="499.5" y="160" width="10" height="10" as="geometry" />
        </mxCell>
        <mxCell id="snO9IdEiVwamC3HxAGcw-70" value="товар 1" style="rounded=1;whiteSpace=wrap;html=1;" vertex="1" parent="1">
          <mxGeometry x="459.5" y="70" width="56" height="70" as="geometry" />
        </mxCell>
        <mxCell id="snO9IdEiVwamC3HxAGcw-71" value="товар 2" style="rounded=1;whiteSpace=wrap;html=1;" vertex="1" parent="1">
          <mxGeometry x="539.5" y="70" width="56" height="70" as="geometry" />
        </mxCell>
        <mxCell id="snO9IdEiVwamC3HxAGcw-72" value="" style="verticalLabelPosition=bottom;verticalAlign=top;html=1;shape=mxgraph.basic.heart;fillColor=#FF66FF;" vertex="1" parent="1">
          <mxGeometry x="579.5" y="80" width="10" height="10" as="geometry" />
        </mxCell>
        <mxCell id="snO9IdEiVwamC3HxAGcw-73" value="" style="verticalLabelPosition=bottom;verticalAlign=top;html=1;shape=mxgraph.basic.heart;fillColor=#FF66FF;" vertex="1" parent="1">
          <mxGeometry x="499.5" y="80" width="10" height="10" as="geometry" />
        </mxCell>
        <mxCell id="snO9IdEiVwamC3HxAGcw-74" value="Home" style="rounded=1;whiteSpace=wrap;html=1;" vertex="1" parent="1">
          <mxGeometry x="470" y="320" width="40" height="20" as="geometry" />
        </mxCell>
        <mxCell id="snO9IdEiVwamC3HxAGcw-91" value="&lt;span style=&quot;font-size: 10px;&quot;&gt;избранное&amp;nbsp;&lt;/span&gt;" style="rounded=1;whiteSpace=wrap;html=1;verticalAlign=top;" vertex="1" parent="1">
          <mxGeometry x="660" y="35.5" width="155" height="310" as="geometry" />
        </mxCell>
        <mxCell id="snO9IdEiVwamC3HxAGcw-92" value="товар 5" style="rounded=1;whiteSpace=wrap;html=1;" vertex="1" parent="1">
          <mxGeometry x="749.5" y="145.5" width="56" height="70" as="geometry" />
        </mxCell>
        <mxCell id="snO9IdEiVwamC3HxAGcw-95" value="товар 6" style="rounded=1;whiteSpace=wrap;html=1;" vertex="1" parent="1">
          <mxGeometry x="670" y="225.5" width="56" height="70" as="geometry" />
        </mxCell>
        <mxCell id="snO9IdEiVwamC3HxAGcw-98" value="" style="verticalLabelPosition=bottom;verticalAlign=top;html=1;shape=mxgraph.basic.heart;fillColor=#FF66FF;" vertex="1" parent="1">
          <mxGeometry x="710" y="235.5" width="10" height="10" as="geometry" />
        </mxCell>
        <mxCell id="snO9IdEiVwamC3HxAGcw-99" value="товар 3" style="rounded=1;whiteSpace=wrap;html=1;" vertex="1" parent="1">
          <mxGeometry x="669.5" y="145.5" width="56" height="70" as="geometry" />
        </mxCell>
        <mxCell id="snO9IdEiVwamC3HxAGcw-100" value="" style="verticalLabelPosition=bottom;verticalAlign=top;html=1;shape=mxgraph.basic.heart;fillColor=#FF66FF;" vertex="1" parent="1">
          <mxGeometry x="789.5" y="155.5" width="10" height="10" as="geometry" />
        </mxCell>
        <mxCell id="snO9IdEiVwamC3HxAGcw-101" value="" style="verticalLabelPosition=bottom;verticalAlign=top;html=1;shape=mxgraph.basic.heart;fillColor=#FF66FF;" vertex="1" parent="1">
          <mxGeometry x="709.5" y="155.5" width="10" height="10" as="geometry" />
        </mxCell>
        <mxCell id="snO9IdEiVwamC3HxAGcw-102" value="товар 1" style="rounded=1;whiteSpace=wrap;html=1;" vertex="1" parent="1">
          <mxGeometry x="669.5" y="65.5" width="56" height="70" as="geometry" />
        </mxCell>
        <mxCell id="snO9IdEiVwamC3HxAGcw-103" value="товар 2" style="rounded=1;whiteSpace=wrap;html=1;" vertex="1" parent="1">
          <mxGeometry x="749.5" y="65.5" width="56" height="70" as="geometry" />
        </mxCell>
        <mxCell id="snO9IdEiVwamC3HxAGcw-104" value="" style="verticalLabelPosition=bottom;verticalAlign=top;html=1;shape=mxgraph.basic.heart;fillColor=#FF66FF;" vertex="1" parent="1">
          <mxGeometry x="789.5" y="75.5" width="10" height="10" as="geometry" />
        </mxCell>
        <mxCell id="snO9IdEiVwamC3HxAGcw-105" value="" style="verticalLabelPosition=bottom;verticalAlign=top;html=1;shape=mxgraph.basic.heart;fillColor=#FF66FF;" vertex="1" parent="1">
          <mxGeometry x="709.5" y="75.5" width="10" height="10" as="geometry" />
        </mxCell>
        <mxCell id="snO9IdEiVwamC3HxAGcw-106" value="Home" style="rounded=1;whiteSpace=wrap;html=1;" vertex="1" parent="1">
          <mxGeometry x="680" y="315.5" width="40" height="20" as="geometry" />
        </mxCell>
        <mxCell id="snO9IdEiVwamC3HxAGcw-107" style="edgeStyle=orthogonalEdgeStyle;rounded=0;orthogonalLoop=1;jettySize=auto;html=1;entryX=0.007;entryY=0.936;entryDx=0;entryDy=0;entryPerimeter=0;" edge="1" parent="1" source="snO9IdEiVwamC3HxAGcw-38" target="snO9IdEiVwamC3HxAGcw-59">
          <mxGeometry relative="1" as="geometry" />
        </mxCell>
        <mxCell id="snO9IdEiVwamC3HxAGcw-110" style="edgeStyle=orthogonalEdgeStyle;rounded=0;orthogonalLoop=1;jettySize=auto;html=1;entryX=0.006;entryY=0.417;entryDx=0;entryDy=0;entryPerimeter=0;" edge="1" parent="1" source="snO9IdEiVwamC3HxAGcw-108" target="snO9IdEiVwamC3HxAGcw-91">
          <mxGeometry relative="1" as="geometry" />
        </mxCell>
        <mxCell id="snO9IdEiVwamC3HxAGcw-112" value="" style="endArrow=classic;html=1;rounded=0;entryX=0.25;entryY=1;entryDx=0;entryDy=0;exitX=0.535;exitY=1.055;exitDx=0;exitDy=0;exitPerimeter=0;" edge="1" parent="1" source="snO9IdEiVwamC3HxAGcw-106" target="m1XFAZKYXhFZ4w68f1Fo-2">
          <mxGeometry width="50" height="50" relative="1" as="geometry">
            <mxPoint x="700" y="360" as="sourcePoint" />
            <mxPoint x="70" y="460" as="targetPoint" />
            <Array as="points">
              <mxPoint x="700" y="470" />
              <mxPoint x="440" y="470" />
              <mxPoint x="240" y="470" />
              <mxPoint x="80" y="470" />
            </Array>
          </mxGeometry>
        </mxCell>
        <mxCell id="snO9IdEiVwamC3HxAGcw-113" value="" style="endArrow=classic;html=1;rounded=0;exitX=0.5;exitY=1;exitDx=0;exitDy=0;entryX=0.319;entryY=1.001;entryDx=0;entryDy=0;entryPerimeter=0;" edge="1" parent="1" source="snO9IdEiVwamC3HxAGcw-74" target="m1XFAZKYXhFZ4w68f1Fo-2">
          <mxGeometry width="50" height="50" relative="1" as="geometry">
            <mxPoint x="430" y="380" as="sourcePoint" />
            <mxPoint x="80" y="350" as="targetPoint" />
            <Array as="points">
              <mxPoint x="490" y="400" />
              <mxPoint x="90" y="400" />
            </Array>
          </mxGeometry>
        </mxCell>
      </root>
    </mxGraphModel>
  </diagram>
</mxfile>
